<svg width="200" height="200" xmlns="http://www.w3.org/2000/svg">
 <!-- 月亮（灰色线稿） -->

 <!-- 星星（灰色线稿） -->
 <!-- 火箭（灰色线稿） -->
 <g>
  <title>Layer 1</title>
  <path stroke="#888888" stroke-width="2" id="svg_10" fill="none" d="m56.17391,22.66666l1.28986,3.27536l2.57971,0l-1.93478,2.45652l0.64493,2.45652l-2.57971,-1.63768l-2.57971,1.63768l0.64493,-2.45652l-1.93478,-2.45652l2.57971,0l1.28986,-3.27536z"/>
  <circle stroke="#888888" id="svg_1" stroke-width="4" fill="none" r="28.86957" cy="165.27101" cx="34.76087"/>
  <circle stroke-width="4" stroke="#888888" id="svg_2" fill="none" r="5.24718" cy="154.34348" cx="23.88164"/>
  <circle stroke="#888888" stroke-width="4" id="svg_3" fill="none" r="4.77746" cy="160.37246" cx="45.59018"/>
  <circle stroke="#888888" stroke-width="4" id="svg_4" fill="none" r="4.60258" cy="180.60435" cx="35.38567"/>
  <g transform="rotate(-0.268444 100.535 98.8406)" stroke="null" id="svg_19">
   <path stroke="#888888" id="svg_11" stroke-width="5" fill="none" d="m102.32569,2.76584c26.69594,14.33064 40.04392,47.56976 40.04392,81.60503c0,28.46224 -8.89865,52.34664 -22.24662,66.67728l-40.04392,0c-13.34797,-14.33064 -22.24662,-38.21504 -22.24662,-66.67728c0,-34.03527 13.34797,-67.27439 40.04392,-81.60503l4.44932,0z"/>
   <path stroke="#888888" id="svg_12" stroke-width="5" fill="none" d="m100.21354,53.58616c-50.98146,-1.66779 -10.74403,-36.5061 0,-42.62134c10.74403,6.11524 50.98146,40.95354 0,42.62134z"/>
   <circle stroke="#888888" id="svg_13" stroke-width="5" fill="none" r="16.72283" cy="86.00205" cx="99.86058"/>
   <path stroke="#888888" id="svg_14" stroke-width="5" fill="none" d="m56.85779,99.72982l-17.99264,24.23634l19.2813,-8.13718l-1.28866,-16.09916z"/>
   <path stroke="#888888" id="svg_15" stroke-width="5" fill="none" d="m143.66707,98.61521l17.46779,24.7217l-20.18955,-7.11869l2.72176,-17.60301z"/>
   <path stroke="#888888" id="svg_16" stroke-width="5" fill="none" d="m101.46043,155.07364c12.64003,13.34233 4.21334,30.9468 0,39.84168c-4.21334,-8.89489 -12.64003,-26.49935 0,-39.84168z"/>
  </g>
  <path stroke="#888888" stroke-width="2" id="svg_20" fill="none" d="m19.36232,9.91304l1.28985,3.27536l2.57971,0l-1.93478,2.45653l0.64493,2.45652l-2.57971,-1.63768l-2.57971,1.63768l0.64492,-2.45652l-1.93478,-2.45653l2.57971,0l1.28986,-3.27536z"/>
  <path stroke="#888888" stroke-width="2" id="svg_21" fill="none" d="m185.44928,9.04348l1.28985,3.27536l2.57971,0l-1.93478,2.45652l0.64493,2.45653l-2.57971,-1.63769l-2.57971,1.63769l0.64493,-2.45653l-1.93479,-2.45652l2.57971,0l1.28986,-3.27536z"/>
  <path stroke="#888888" stroke-width="2" id="svg_22" fill="none" d="m146.89856,170.2029l1.28985,3.27536l2.57971,0l-1.93478,2.45652l0.64493,2.45653l-2.57971,-1.63769l-2.57971,1.63769l0.64493,-2.45653l-1.93479,-2.45652l2.57971,0l1.28986,-3.27536z"/>
  <path stroke="#888888" stroke-width="2" id="svg_23" fill="none" d="m166.02899,73.3913l1.28985,3.27536l2.57971,0l-1.93478,2.45652l0.64493,2.45653l-2.57971,-1.63769l-2.57971,1.63769l0.64493,-2.45653l-1.93479,-2.45652l2.57971,0l1.28986,-3.27536z"/>
  <path stroke="#888888" stroke-width="2" id="svg_24" fill="none" d="m22.26087,91.36231l1.28985,3.27537l2.57971,0l-1.93478,2.45652l0.64493,2.45652l-2.57971,-1.63768l-2.57971,1.63768l0.64493,-2.45652l-1.93479,-2.45652l2.57971,0l1.28986,-3.27537z"/>
 </g>
</svg>